<?xml version="1.0" encoding="utf-8"?>
<svg viewBox="33.802 100 473.292 452.86" xmlns="http://www.w3.org/2000/svg">
  <g transform="matrix(1, 0, 0, 1, 4.358598, 52.610031)">
    <g transform="matrix(1, 0, 0, 1, -1.391328, 0.174845)">
      <title>Head</title>
      <path class="face-line" style="stroke: rgb(0, 0, 0); fill: none;" d="M 219.731 69.989 C 208.568 73.644 191.033 82.611 182.806 98.714 C 178.425 107.289 173.532 117.217 170.937 129.144 C 164.604 158.249 163.256 190.557 164.214 188.358 C 163.392 188.219 166.282 204.089 168.284 218.656 C 169.868 230.186 171.692 241.48 172.482 241.944 C 174.096 249.294 175.835 255.016 179.987 261.319 C 186.352 270.981 186.53 271.812 194.034 279.737 C 198.965 284.945 206.414 290.637 208.083 292.068 C 214.472 297.548 218.522 299.351 223.108 300.966 C 228.32 302.802 230.898 303.486 236.527 304.331 C 240.195 304.882 245.75 304.559 249.551 303.888 C 252.591 303.351 256.461 302.47 259.264 301.61 C 263.863 300.199 273.959 296.809 278.272 294.58 C 288.674 289.205 293.807 285.557 303.42 277.727 C 308.688 273.436 311.952 270.081 315.782 265.369 C 319.576 260.702 321.265 257.372 322.616 251.307 C 323.958 245.284 326.694 237.056 328.849 229.396 C 334.955 207.692 337.06 185.552 337.343 162.619 C 337.54 146.648 331.921 133.057 326.113 116.801 C 321.617 104.217 317.942 95.156 304.052 83.979 C 295.193 76.85 280.585 71.402 264.41 68.49 C 241.619 64.387 224.499 68.428 219.731 69.989 Z">
        <title>Face Shape</title>
      </path>
      <g>
        <title>Ears</title>
        <path class="face-line" style="stroke: black; fill: none;" d="M 337.876 164.018 C 368.062 145.126 361.507 177.79 352.035 202.146 C 344.549 221.397 324.725 239.276 328.785 228.979 C 332.25 220.191 334.508 212.235 337.876 164.018 Z">
          <title>Ear Right</title>
        </path>
        <path class="face-line" style="stroke: rgb(0, 0, 0); fill: none;" d="M 165.738 162.277 C 164.767 157.34 155.952 161.699 155.98 163.612 C 154.074 165.413 154.134 176.774 156.292 189.046 C 159.029 204.611 158.204 221.279 159.899 219.794 C 158.136 221.276 168.078 233.793 170.134 230.386 L 164.67 189.673 C 164.288 189.673 164.003 176.377 164.23 176.377 L 165.738 162.277 Z">
          <title>Ear Left</title>
        </path>
      </g>
    </g>
    <g style="">
      <title>Glasses</title>
      <path class="face-line" style="stroke: rgb(0, 0, 0);" d="M 334.537 154.683 L 332.956 158.021 L 340.901 161.872 L 344.315 160.55 C 346.154 159.972 337.669 156.445 334.537 154.683 Z">
        <title>Glasses Arm Right</title>
      </path>
      <g style="">
        <title>Frame</title>
        <path class="face-line" style="stroke: rgb(0, 0, 0); fill: none;" d="M 164.592 153.169 C 163.642 153.512 171.258 151.739 172.383 151.62 C 182.347 141.36 216.431 141.847 235.324 154.091 C 235.321 155.234 252.381 154.523 254.648 154.339 C 271.21 141.219 302.279 145.162 315.611 149.6 C 324.798 152.659 331.054 152.743 329.848 152.497 L 330.413 157.397 C 330.545 156.575 322.394 156.118 321.925 158.747 C 322.578 165.781 313.149 188.081 308.102 190.808 C 295.649 199.871 273.662 198.134 264.412 189.108 C 255.162 180.082 254.457 170.133 251.66 158.33 C 252.01 157.423 238.634 157.666 236.188 158.601 C 237.034 162 231.762 183.447 224.803 187.2 C 213.293 197.472 187.807 197.83 177.42 184.626 C 178.767 185.95 176.008 183.321 173.873 178.327 C 173.114 176.552 171.668 175.202 169.074 159.395 C 169.074 159.395 164.658 158.267 164.766 158.21 C 164.874 158.153 164.697 153.442 164.592 153.169 Z">
          <title>Glass Frame</title>
        </path>
        <path class="face-line" style="stroke: rgb(0, 0, 0); fill: rgb(252, 243, 122);" d="M 329.812 153.589 L 329.54 156.073 C 330.7 156.496 332.464 158.754 333.606 158.109 C 334.636 157.528 334.554 158.046 334.93 155.795 C 335.167 154.375 332.101 154.124 329.812 153.589 Z">
          <title>Glass Frame Joint</title>
        </path>
      </g>
      <g style="">
        <title>Glass Inner</title>
        <path class="face-line" id="glass-frame1" style="stroke: rgb(0, 0, 0); paint-order: fill; fill: rgb(255, 145, 0);" d="M 171.722 160.039 C 171.719 160.64 171.77 163.777 172.763 168.471 C 174.812 178.154 177.682 183.402 180.876 185.61 C 191.826 194.697 208.117 194.752 219.097 188.853 C 230.544 184.593 235.063 158.792 233.662 157.024 C 228.295 146.529 187.551 142.661 174.692 152.578 C 172.717 154.101 171.732 158.04 171.722 160.039 Z">
          <title>Glass Frame Inner Left</title>
        </path>
        <path class="face-line" id="glass-frame2" style="paint-order: fill; stroke: rgb(0, 0, 0); fill: rgb(255, 145, 0);" d="M 262.366 182.848 C 259.239 178.263 257.457 173.021 256.139 167.96 C 255.117 164.036 255.146 159.617 255.818 157.726 C 260.006 145.944 303.811 143.767 318.841 154.925 C 323.363 158.282 314.687 176.889 314.167 178.538 C 312.72 183.129 308.646 188.511 305.556 190.331 C 297.07 195.328 273.627 199.363 262.366 182.848 Z">
          <title>Glass Frame Inner Right</title>
        </path>
        <path class="face-line" style="fill: rgb(255, 255, 255);" d="M 299.597 188.557 C 302.774 188.154 307.123 182.272 308.74 178.069 C 309.833 175.227 309.601 180.29 308.166 183.156 C 306.634 186.215 302.547 189.374 299.597 188.557 Z"/>
      </g>
    </g>
    <g>
      <title>Brows</title>
      <path class="face-line" id="brows1" style="fill: rgb(41, 41, 41);" d="M 269.282 138.019 C 265.92 138.186 265.815 131.551 269.637 131.286 C 282.021 127.744 302.568 129.02 300.145 129.657 C 302.616 128.767 316.312 142.192 314.898 142.091 C 314.998 141.453 297.136 135.231 297.922 136.505 C 297.295 135.082 271.235 136.628 269.282 138.019 Z">
        <title>Brow Right</title>
      </path>
      <path class="face-line" id="brows2" style="stroke: rgb(45, 45, 45); fill: rgb(50, 50, 50);" d="M 265.454 138.852 C 265.454 138.852 262.802 134.047 263.173 133.956 L 264.116 133.275 C 264.2 133.312 265.244 139.197 265.454 138.852 Z">
        <title>Brow Right Floof</title>
      </path>
      <path class="face-line" id="brows3" style="fill: rgb(41, 41, 41);" d="M 222.42 140.03 C 223.881 139.915 225.354 132.218 224.167 133.127 C 225.583 131.983 201.302 127.782 189.518 131.502 C 187.136 132.254 176.707 144.117 177.947 143.753 C 177.768 143.421 191.724 136.82 192.663 137.876 C 192.26 137.094 219.613 137.531 222.42 140.03 Z">
        <title>Brow Left</title>
      </path>
    </g>
    <g>
      <title>Nostrils</title>
      <path class="face-line" style="stroke: rgb(0, 0, 0); fill: rgb(69, 69, 69);" d="M 236.203 213.809 C 234.242 214.037 232.507 213.631 230.546 213.76 C 228.613 213.887 228.556 213.587 233.321 210.814 C 234.62 210.058 236.411 210.765 236.203 213.809 Z">
        <title>Nostril Left</title>
      </path>
      <path class="face-line" style="stroke: rgb(0, 0, 0); fill: rgb(69, 69, 69);" d="M 252.436 214.109 C 252.036 213.843 253.281 210.326 255.065 211.516 L 259.853 213.264 C 259.964 214.569 252.502 214.899 252.436 214.109 Z">
        <title>Nostril Right</title>
      </path>
    </g>
    <g>
      <title>Mouth</title>
      <path class="face-line" style="stroke: rgb(0, 0, 0); fill: none;" d="M 223.035 240.287 C 223.045 240.297 223.447 240.769 232.108 235.861 C 236.961 235.467 240.115 237.295 242.885 237.352 C 245.655 237.409 252.295 235.142 252.294 236.026 C 252.845 234.926 258.134 239.189 263.117 242.099"/>
      <path class="face-line" style="stroke: rgb(0, 0, 0); fill: none; visibility: hidden;" d="M 216.594 243.883 C 219.491 241.438 228.405 238.333 231.075 237.611 C 235.708 236.318 243.344 237.831 243.265 237.841 C 243.14 237.841 248.19 236.063 251.52 236.154 C 256.254 236.879 270.8 246.441 270.517 246.441 C 271.731 248.417 260.517 250.294 243.52 250.628 C 232.657 249.66 213.047 247.88 216.594 243.883 Z"/>
      <path class="face-line" style="stroke: rgb(0, 0, 0); fill: none;" d="M 219.5 246.054 C 221.44 245.194 230.733 243.644 233.07 243.077 C 235.61 243.026 240.299 244.255 243.363 244.322 C 246.683 244.054 250.111 243.274 252.558 243.903 C 255.869 244.754 264.514 245.529 267.112 247.289"/>
      <path class="face-line" style="fill: rgb(216, 216, 216); stroke: rgb(0, 0, 0);"/>
      <path class="face-line" style="fill: rgb(216, 216, 216); stroke: rgb(0, 0, 0);" d="M 227.715 252.653 C 228.185 254.062 242.982 256.528 242.512 255.119 C 242.388 256.986 260.122 254.401 259.777 253.71"/>
    </g>
    <path class="face-line" style="stroke: rgb(0, 0, 0); fill: none;" d="M 161.372 159.672 C 159.137 147.951 161.619 114.827 167.665 102.704 C 173.89 90.222 184.099 70.495 210.062 56.83 C 265.009 27.911 316.543 73.48 322.879 86.237 C 340.811 122.34 345.962 134.474 345.567 159.207">
      <title>Hairline</title>
    </path>
    <g>
      <title>Nose</title>
      <path class="face-line" style="stroke: rgb(0, 0, 0); fill: none;" d="M 259.509 192.711 C 259.412 193.73 266.596 211.323 266.107 213.322 C 265.857 217.867 261.014 219.411 258.865 219.295">
        <title>Right</title>
      </path>
      <path class="face-line" style="stroke: rgb(0, 0, 0); fill: none;" d="M 233.774 191.493 C 232.802 195.835 221.922 210.353 223.038 212.956 C 224.514 216.398 226.488 219.307 232.601 218.646">
        <title>Left</title>
      </path>
    </g>
    <path class="face-line" style="fill: rgb(216, 216, 216); stroke: rgb(0, 0, 0);" d="M -47.52 140.73"/>
  </g>
  <path class="face-line" style="fill: rgb(216, 216, 216); stroke: rgb(0, 0, 0);" d="M 202.252 337.471 C 201.708 337.652 211.855 402.14 213.238 401.679">
    <title>Neck Left</title>
  </path>
  <path class="face-line" style="stroke: rgb(0, 0, 0); fill: none;" d="M 211.251 344.902 C 212.067 346.69 235.56 385.688 242.305 387.815">
    <title>Throat Left</title>
  </path>
  <path class="face-line" style="stroke: rgb(0, 0, 0); fill: none;" d="M 319.667 317.429 C 320.496 317.429 326.787 364.711 326.296 364.711">
    <title>Neck Right</title>
  </path>
  <path class="face-line" style="stroke: rgb(0, 0, 0); fill: none;" d="M 316.823 320.337 C 314.615 325.34 294.383 379.046 285.612 381.462">
    <title>Throat Right</title>
  </path>
  <path class="face-line" id="shirt" style="stroke: rgb(34, 34, 34); fill: rgb(62, 62, 62);" d="M 505.315 552.835 C 507.056 553.531 508.41 435.047 504.912 433.648 C 507.43 435.434 473.405 385.354 472.297 387.342 C 473.587 385.885 323.377 334.805 323.313 334.996 C 328.092 339.423 340.112 342.831 340.392 348.057 C 341.614 370.869 331.111 395.608 317.722 407.386 C 294.213 428.066 230.282 439.675 207.071 406.008 C 197.902 392.709 202.335 371.585 203.902 368.242 C 206.655 362.369 206.386 366.865 203.723 352.311 C 204.295 351.573 76.658 390.028 74.469 406.67 C 63.939 410.506 29.731 555.041 34.203 552.835 L 505.315 552.835 Z">
    <title>Shirt MAIN</title>
  </path>
  <path class="face-line" style="stroke: rgb(34, 34, 34); fill: none;" d="M 194.408 355.84 C 185.115 363.089 186.892 420.866 213.012 438.708 C 220.796 444.025 233.313 450.923 248.681 452.445 C 281.94 455.738 315.419 444.021 328.573 431.379 C 342.084 420.789 363.753 373.161 357.887 346.821">
    <title>Shirt Neck Line</title>
  </path>
  <path class="face-line" style="stroke: rgb(0, 0, 0); fill: none;" d="M 504.456 435.545 C 503.117 431.527 453.497 455.542 456.07 457.154 C 453.26 455.226 430.627 491.757 432.581 492.387 C 430.548 491.525 418.371 553.046 420.367 552.048">
    <title>Shirt Shoulder Line Right</title>
  </path>
  <path class="face-line" style="fill: rgb(34, 34, 34); stroke: rgb(34, 34, 34);" d="M 74.147 406.732 C 74.147 406.732 99.158 489.764 107.97 532.161 C 108.877 536.524 107.5 543.905 107.5 543.905 C 107.5 543.905 112.789 536.831 111.259 532.161 C 97.887 491.339 74.147 406.732 74.147 406.732 Z">
    <title>Shirt Line Left Armpit</title>
  </path>
  <path class="face-line" style="fill: rgb(34, 34, 34); stroke: rgb(34, 34, 34);" d="M 131.002 489.671 L 133.821 503.201 L 137.767 551.117 L 136.64 503.764 L 131.002 489.671 Z">
    <title>Shirt Shadow Left Bottom</title>
  </path>
  <path class="face-line" style="fill: rgb(34, 34, 34); stroke: rgb(34, 34, 34);" d="M 403.643 551.578 L 404.559 500.474 C 404.312 500.153 406.756 486.604 407.025 487.877 C 406.954 487.031 419.499 458.278 418.864 460.819 C 418.54 460.495 409.586 480.401 407.401 501.798 C 404.948 525.816 403.215 551.15 403.643 551.578 Z">
    <title>Shirt Shadow Right Bottom</title>
  </path>
  <path class="face-line" style="fill: rgb(216, 216, 216); stroke: rgb(0, 0, 0);" d="M 285.041 218.516"/>
</svg>